<svg width="200" height="200" viewBox="0 0 200 200" fill="none" xmlns="http://www.w3.org/2000/svg">
<g clip-path="url(#clip0_17_57)">
<path d="M100 90.0034H40.8333C37.175 90.0034 36.9666 89.6645 37.6166 84.9091C40.25 65.5936 43.5083 46.504 48.9416 28.2277C51.3666 20.0836 54.325 12.2896 58.6416 5.63653C62.3166 -0.0903453 66.925 -0.881038 71.975 0.892372C75.5833 2.16878 79.15 3.70498 82.6916 5.29766C95.2182 11.1046 108.875 10.5385 121.117 3.70498C122.033 3.21927 122.958 2.73356 123.892 2.28174C132.525 -1.84116 137.817 0.316296 143.492 10.1887C147.6 17.384 150.258 25.6185 152.658 33.9998C157.475 51.0449 160.158 68.8467 162.575 86.7277C162.925 89.3257 162.042 90.0486 160.333 90.0373C154.783 90.0373 149.225 90.0373 143.667 90.0373L100 90.0034Z" fill="#D3D1C5"/>
<path d="M99.7333 120.332C69.8833 120.332 40.0361 120.332 10.1917 120.332C5.06666 120.332 1.46666 116.751 0.308329 110.652C-0.023986 108.95 -0.0957541 107.174 0.0974441 105.433C0.290642 103.692 0.744716 102.023 1.43171 100.529C2.1187 99.0344 3.02406 97.7467 4.09205 96.7447C5.16003 95.7427 6.36803 95.0477 7.64166 94.7024C8.84106 94.4194 10.0578 94.2946 11.275 94.3296C70.4306 94.3296 129.597 94.3296 188.775 94.3296C194.608 94.3296 198.15 97.4359 199.608 103.705C200.021 105.51 200.134 107.417 199.939 109.288C199.744 111.159 199.246 112.949 198.48 114.528C197.715 116.108 196.701 117.438 195.511 118.424C194.322 119.41 192.986 120.027 191.6 120.23C190.383 120.357 189.162 120.398 187.942 120.355L99.7333 120.332Z" fill="#D3D1C5"/>
<path d="M133.717 199.672C130.987 199.731 128.275 199.052 125.741 197.674C123.207 196.296 120.901 194.247 118.957 191.648C117.014 189.048 115.472 185.949 114.422 182.533C113.372 179.117 112.835 175.451 112.842 171.75C112.898 170.214 112.619 168.689 112.04 167.367C111.46 166.045 110.606 164.984 109.583 164.317C103.517 159.618 97.3167 159.449 90.9 162.815C88.225 164.227 87.0834 166.497 87.1417 170.575C87.3 181.419 83.975 190.071 77.075 195.685C73.9304 198.408 70.2922 199.9 66.5617 199.997C62.8311 200.095 59.1532 198.794 55.9334 196.239C49.0417 191.122 45.2667 182.876 45.15 171.998C45.0084 159.573 49.1167 150.435 57.3834 145.307C65.65 140.179 73.5917 142.234 80.5667 150.254C82.2209 152.255 83.581 154.662 84.575 157.348C85.3334 159.257 86.1917 159.449 87.5417 158.477C95.775 152.649 103.95 153.078 111.958 159.257C113.792 160.657 114.458 159.483 115.292 157.54C120.583 145.284 130.292 139.93 139.867 143.827C144.78 145.794 148.995 150.123 151.721 156.002C154.447 161.881 155.498 168.906 154.675 175.76C153.217 189.597 144.35 199.684 133.717 199.672Z" fill="#D3D1C5"/>
</g>
<defs>
<clipPath id="clip0_17_57">
<rect width="200" height="200" fill="white"/>
</clipPath>
</defs>
</svg>
