<svg width="200" height="200" viewBox="0 0 200 200" fill="none" xmlns="http://www.w3.org/2000/svg">
<g clip-path="url(#clip0_17_34)">
<path d="M110.87 0H19.5668C8.77851 0 0.00195312 8.77617 0.00195312 19.5648V84.7809C0.00195312 95.5695 8.77812 104.346 19.5668 104.346H26.0883V123.911C26.0883 129.709 33.1215 132.621 37.2207 128.521L61.3965 104.346H110.869C121.657 104.346 130.434 95.5695 130.434 84.7809V19.5648C130.434 8.77617 121.658 0 110.87 0ZM39.1316 58.6945C35.5301 58.6945 32.6102 55.7746 32.6102 52.1731C32.6102 48.5715 35.5301 45.6516 39.1316 45.6516C42.7332 45.6516 45.6531 48.5715 45.6531 52.1731C45.6531 55.7746 42.7332 58.6945 39.1316 58.6945ZM65.218 58.6945C61.6164 58.6945 58.6965 55.7746 58.6965 52.1731C58.6965 48.5715 61.6164 45.6516 65.218 45.6516C68.8195 45.6516 71.7394 48.5715 71.7394 52.1731C71.7394 55.7746 68.8199 58.6945 65.218 58.6945ZM91.3047 58.6945C87.7031 58.6945 84.7832 55.7746 84.7832 52.1731C84.7832 48.5715 87.7031 45.6516 91.3047 45.6516C94.9062 45.6516 97.8262 48.5715 97.8262 52.1731C97.8262 55.7746 94.9062 58.6945 91.3047 58.6945Z" fill="#B3B3B3"/>
<path d="M180.433 69.5637H143.477V84.7809C143.477 101.893 130.225 115.959 113.445 117.278C114.541 118.444 115.217 120.01 115.217 121.737C115.217 125.338 112.297 128.258 108.696 128.258C105.094 128.258 102.174 125.338 102.174 121.737C102.174 120.064 102.809 118.543 103.845 117.389H69.566V154.345C69.566 165.127 78.3485 173.91 89.1309 173.91H138.608L162.781 198.083C166.902 202.204 173.912 199.227 173.912 193.475V173.91H180.433C191.216 173.91 199.998 165.127 199.998 154.345V89.1285C199.998 78.3465 191.215 69.5637 180.433 69.5637ZM134.782 128.258C131.18 128.258 128.261 125.338 128.261 121.737C128.261 118.135 131.18 115.215 134.782 115.215C138.384 115.215 141.304 118.135 141.304 121.737C141.304 125.338 138.384 128.258 134.782 128.258ZM160.868 128.258C157.267 128.258 154.347 125.338 154.347 121.737C154.347 118.135 157.267 115.215 160.868 115.215C164.47 115.215 167.39 118.135 167.39 121.737C167.39 125.338 164.47 128.258 160.868 128.258Z" fill="#B3B3B3"/>
</g>
<defs>
<clipPath id="clip0_17_34">
<rect width="200" height="200" fill="white"/>
</clipPath>
</defs>
</svg>
