<svg width="64" height="64" viewBox="0 0 64 64" fill="none" xmlns="http://www.w3.org/2000/svg">
<path d="M63.9501 4.60773L55.9501 56.4952C55.7626 57.712 55.0282 58.7727 53.9538 59.3765C53.3483 59.7164 52.6701 59.8886 51.9938 59.8886C51.4703 59.8886 50.9539 59.7867 50.4576 59.5796L35.1325 53.1921L28.775 62.7284C28.2875 63.5627 27.475 64.0002 26.6 64.0002C25.1625 64.0002 24 62.8377 24 61.4002V49.3777C24 48.4884 24.2966 47.624 24.8428 46.9227L52 12.0002L15.2875 45.0377L2.4613 39.6877C1.0548 39.1002 0.101612 37.7752 0.00786249 36.1377C-0.0858875 34.5002 0.691488 33.1727 2.01536 32.4165L58.0154 0.528978C59.3516 -0.234647 61.0004 -0.164397 62.2654 0.704728C63.5304 1.57385 64.1876 3.09023 63.9501 4.60773Z" fill="#B3B3B3"/>
</svg>
